<svg width="114" height="115" viewBox="0 0 114 115" fill="none" xmlns="http://www.w3.org/2000/svg">
<path d="M59.2626 56.3721C59.2626 62.7584 54.409 67.9356 48.4218 67.9356C42.4346 67.9356 37.5811 62.7584 37.5811 56.3721C37.5811 49.9857 42.4346 44.8086 48.4218 44.8086C54.409 44.8086 59.2626 49.9857 59.2626 56.3721Z" fill="#C73E3A"/>
<path fill-rule="evenodd" clip-rule="evenodd" d="M50.8568 16.4548L50.8568 16.4556H50.8569L50.8568 16.456C50.8566 16.7101 50.793 16.9493 50.6811 17.1587L50.11 19.4432C50.11 19.4449 50.11 19.4467 50.11 19.4484C50.11 19.8614 49.7752 20.1963 49.3621 20.1963C48.9491 20.1963 48.6142 19.8614 48.6142 19.4484C48.6142 19.448 48.6142 19.4475 48.6142 19.4471H48.6132L48.0414 17.1596C47.929 16.9496 47.8652 16.7096 47.8652 16.4548C47.8652 15.6287 48.5349 14.959 49.361 14.959C50.1871 14.959 50.8568 15.6287 50.8568 16.4548Z" fill="#414143"/>
<path fill-rule="evenodd" clip-rule="evenodd" d="M79.7472 14.3996C79.7472 14.3991 79.7472 14.3986 79.7472 14.3981C79.7228 13.5723 78.7142 12.9321 77.4944 12.9681C76.2745 13.004 75.3054 13.7026 75.3297 14.5283C75.3346 14.6938 75.379 14.8519 75.4568 14.9985L77.2577 21.678C77.8718 23.1009 80.1903 24.1133 83.6203 24.0121C84.0015 24.0009 85.3353 23.9616 85.3247 23.6016C85.3172 23.3465 84.8611 23.3368 84.3071 23.325C84.0795 23.3201 83.8354 23.315 83.5991 23.2922C80.7302 23.0166 80.1394 22.3856 80.1054 21.2338L79.7478 14.3995L79.7472 14.3996Z" fill="#414143"/>
<path fill-rule="evenodd" clip-rule="evenodd" d="M20.2848 14.3833C20.2849 14.3817 20.2849 14.38 20.2849 14.3783C20.3046 13.5525 21.3096 12.9065 22.5296 12.9356C23.7496 12.9647 24.7227 13.6578 24.703 14.4836C24.703 14.4841 24.703 14.4845 24.703 14.4849L24.7031 14.4849L24.703 14.4853C24.6988 14.6493 24.6558 14.8061 24.58 14.952L22.8162 21.6439C22.2101 23.0702 19.8974 24.0957 16.4669 24.0139C16.0857 24.0048 14.7516 23.973 14.7602 23.613C14.7663 23.3578 15.2223 23.3455 15.7762 23.3306C16.0038 23.3245 16.2478 23.3179 16.484 23.2939C19.3514 23.002 19.9386 22.3677 19.966 21.2157L20.2848 14.3833Z" fill="#414143"/>
<path fill-rule="evenodd" clip-rule="evenodd" d="M76.9072 40.4311C76.8598 40.267 76.8327 40.0977 76.8275 39.9243C76.7788 38.2729 78.7475 36.8749 81.2247 36.8018C83.3223 36.7399 85.1118 37.6478 85.6407 38.9301L85.7784 38.9145L87.9564 74.7106C88.0276 77.1243 89.189 78.449 94.8179 79.038C95.2816 79.0865 95.7604 79.0983 96.2069 79.1094C97.2937 79.1362 98.1885 79.1584 98.2042 79.693C98.2265 80.4473 95.6101 80.5245 94.8625 80.5466H94.8624C88.1344 80.745 83.5822 78.6143 82.3719 75.6302L76.9072 40.4311Z" fill="#414143"/>
<path fill-rule="evenodd" clip-rule="evenodd" d="M21.7819 40.3575C21.8271 40.1954 21.8526 40.0283 21.8567 39.8574C21.896 38.2057 19.9195 36.8188 17.4419 36.7598C15.3467 36.7098 13.5642 37.6254 13.0401 38.9081L12.9019 38.8932L10.9262 74.701C10.8686 77.1151 9.71472 78.4463 4.08916 79.0671C3.62581 79.1182 3.14703 79.1328 2.70064 79.1463C1.61402 79.1793 0.719382 79.2065 0.706635 79.7413C0.688652 80.4957 3.30552 80.5581 4.0532 80.5759C10.7823 80.7363 15.3223 78.58 16.5157 75.5891L21.7819 40.3575Z" fill="#414143"/>
<path fill-rule="evenodd" clip-rule="evenodd" d="M1.29552 43.0497C0.168995 41.4347 -1.25794 37.2358 2.04654 33.3599C3.67376 31.7449 8.50535 28.1274 14.8139 26.577C22.6996 24.639 30.5853 23.1856 49.3607 23.1855V29.9683C42.6015 29.9683 27.2311 30.0919 19.6955 30.9373C11.0588 31.9063 1.67097 35.7822 2.04654 42.5651C2.04652 43.0496 1.86972 43.3785 1.29552 43.0497ZM97.4262 43.0499C98.5527 41.4349 99.9796 37.236 96.6751 33.3601C95.0479 31.7451 90.2163 28.1276 83.9078 26.5772C76.0221 24.6392 68.5119 23.1858 49.361 23.1857V29.9685C50.1225 29.9685 50.9936 29.9661 51.9507 29.9634C59.4891 29.9421 72.3621 29.9058 79.0262 30.9375C88.4139 32.391 97.0507 35.7824 96.6751 42.5653C96.478 43.0048 96.852 43.3788 97.4262 43.0499Z" fill="#414143"/>
<path fill-rule="evenodd" clip-rule="evenodd" d="M8.55763 0.0821285C7.61886 1.08838 6.42975 3.70462 9.18348 6.11962C10.5395 7.12587 14.5658 9.37986 19.8229 10.3459C26.3943 11.5534 32.9657 12.4589 48.6119 12.459V8.23278C42.9793 8.23278 30.1706 8.15581 23.891 7.62903C16.6937 7.02529 8.8705 4.61029 9.18348 0.384046C9.18346 0.0821419 9.03613 -0.122789 8.55763 0.0821285ZM88.6671 0.0821285C89.6059 1.08838 90.795 3.70462 88.0412 6.11962C86.6852 7.12587 82.6589 9.37986 77.4018 10.3459C70.8304 11.5534 64.5719 12.4589 48.6128 12.459V8.23278C49.2473 8.23278 49.9733 8.23432 50.7709 8.236C57.0528 8.24926 67.7804 8.27191 73.3338 7.62904C81.1569 6.72341 88.3542 4.61029 88.0412 0.384047C87.877 0.110208 88.1886 -0.122788 88.6671 0.0821285Z" fill="#414143"/>
<path d="M9.51211 101.022C10.615 103.303 11.9617 105.424 13.5524 107.382C15.1642 109.341 16.6701 110.536 18.0698 110.966C18.0698 111.87 17.8365 112.57 17.3699 113.065C16.9033 113.56 16.2353 113.808 15.3657 113.808C14.2204 113.808 12.8949 113 11.3891 111.386C9.90447 109.75 8.60014 107.92 7.47607 105.897C6.35201 103.874 5.56729 102.098 5.12191 100.57C7.22157 99.6442 9.01371 98.2128 10.4983 96.2755C11.9829 94.3168 12.7252 92.3903 12.7252 90.4961C13.6372 90.4961 14.4219 90.6575 15.0794 90.9804C15.7581 91.3033 16.0974 91.8199 16.0974 92.5302C16.0974 93.6495 15.4399 95.0056 14.125 96.5984C12.8101 98.1912 11.2724 99.6657 9.51211 101.022ZM5.02647 113.226C4.34779 113.485 3.62669 113.614 2.86318 113.614C2.09966 113.614 1.43159 113.366 0.858953 112.871C0.307526 112.376 0.0318131 111.698 0.0318131 110.837C0.0318131 109.976 0.137857 108.329 0.349944 105.897C0.562031 103.443 0.668075 101.485 0.668075 100.021C0.668075 96.254 0.445383 93.2728 0 91.0773C0.678679 90.819 1.39978 90.6898 2.16329 90.6898C2.9268 90.6898 3.58427 90.9374 4.1357 91.4324C4.70834 91.9275 4.99465 92.6055 4.99465 93.4665C4.99465 94.3275 4.88861 95.9849 4.67652 98.4388C4.46444 100.871 4.35839 102.819 4.35839 104.283C4.35839 108.05 4.58108 111.031 5.02647 113.226Z" fill="#414143"/>
<path d="M34.2833 98.4065C33.7107 100.882 33.4244 103.368 33.4244 105.865C33.4244 108.34 33.7001 110.794 34.2515 113.226C33.488 113.485 32.7033 113.614 31.8973 113.614C31.0914 113.614 30.5294 113.377 30.2112 112.903C29.8931 112.408 29.734 111.709 29.734 110.805C29.734 109.879 29.8719 108.62 30.1476 107.027C28.6418 110.299 27.189 112.365 25.7892 113.226C25.153 113.614 24.4955 113.808 23.8168 113.808C22.2049 113.808 20.9536 113.205 20.0629 111.999C19.1721 110.773 18.7267 109.255 18.7267 107.447C18.7267 104.692 19.4796 102.281 20.9854 100.215C22.4913 98.1267 24.4425 97.0827 26.8391 97.0827C29.2568 97.0827 31.7383 97.524 34.2833 98.4065ZM30.1158 100.344C28.9917 99.9993 28.0373 99.8271 27.2526 99.8271C25.662 99.8271 24.4743 100.182 23.6896 100.893C22.9685 102.701 22.6079 104.541 22.6079 106.414C22.6079 107.404 22.7564 108.405 23.0533 109.416C23.3714 110.428 23.8486 110.934 24.4849 110.934C25.2272 110.934 26.1816 109.825 27.3481 107.608C28.5145 105.391 29.4371 102.97 30.1158 100.344Z" fill="#414143"/>
<path d="M51.5553 100.57L51.2372 107.673C51.2372 109.632 51.5341 111.547 52.128 113.42C51.5341 113.678 50.8554 113.808 50.0919 113.808C48.2892 113.808 47.3878 112.785 47.3878 110.74C47.3878 109.815 47.5045 108.265 47.7378 106.091C47.9711 103.895 48.0877 102.518 48.0877 101.958C48.0877 100.882 47.6105 100.344 46.6561 100.344C45.9562 100.344 45.1609 100.86 44.2701 101.894C43.4006 102.905 42.6477 104.046 42.0114 105.316C41.3964 106.564 41.0358 107.598 40.9298 108.416C41.0146 110.094 41.2267 111.698 41.566 113.226C40.8873 113.485 40.1769 113.614 39.4345 113.614C38.7135 113.614 38.1196 113.442 37.653 113.097C37.2076 112.731 36.9849 112.236 36.9849 111.612C36.9849 110.966 37.0804 109.825 37.2713 108.19C37.4621 106.532 37.5576 104.896 37.5576 103.282C37.5576 101.646 37.3137 99.7733 36.8259 97.6639C37.5046 97.4056 38.2257 97.2764 38.9892 97.2764C39.7527 97.2764 40.3677 97.5024 40.8343 97.9545C41.3221 98.4065 41.566 98.9661 41.566 99.6334C41.566 100.301 41.4812 101.366 41.3115 102.83C42.1175 101.302 43.1673 99.967 44.461 98.8262C45.7547 97.6639 47.0485 97.0827 48.3422 97.0827C50.4843 97.0827 51.5553 98.245 51.5553 100.57Z" fill="#414143"/>
<path d="M56.2617 92.5302C56.9403 92.1858 57.6296 92.0136 58.3295 92.0136C59.0294 92.0136 59.5914 92.2396 60.0156 92.6916C60.461 93.1437 60.6837 93.8109 60.6837 94.6934C60.6837 95.576 60.6307 96.5769 60.5246 97.6962C62.1153 97.6962 63.6317 97.4702 65.0739 97.0181C65.3284 97.4486 65.4557 97.9545 65.4557 98.5356C65.4557 99.0953 65.2011 99.5581 64.6921 99.924C64.2043 100.268 63.7059 100.441 63.1969 100.441C62.6879 100.441 62.1153 100.376 61.479 100.247C60.8428 100.118 60.4292 100.042 60.2383 100.021C60.2171 100.215 60.1535 100.602 60.0474 101.183C59.9626 101.764 59.8884 102.27 59.8247 102.701C59.6551 103.885 59.5702 105.155 59.5702 106.511C59.5702 109.46 60.514 110.934 62.4016 110.934C63.1015 110.934 63.9074 110.686 64.8194 110.191C65.0951 110.6 65.233 111.128 65.233 111.773C65.233 112.419 64.883 112.925 64.1831 113.291C63.5044 113.635 62.6879 113.808 61.7335 113.808C58.0008 113.808 56.1344 111.655 56.1344 107.35C56.1344 106.726 56.2193 105.596 56.3889 103.96C56.5798 102.324 56.6752 101 56.6752 99.9886C55.6572 100.053 54.8407 100.236 54.2256 100.537C53.9711 100.15 53.8439 99.7087 53.8439 99.2137C53.8439 98.6971 54.0241 98.2773 54.3847 97.9545C54.7452 97.6101 55.1906 97.4379 55.7208 97.4379C56.2511 97.4379 56.601 97.4486 56.7707 97.4702C56.7919 97.298 56.8025 97.0719 56.8025 96.7921C56.8025 95.1778 56.6222 93.7571 56.2617 92.5302Z" fill="#414143"/>
<path d="M73.0123 114.001C70.6793 114.001 68.9614 113.312 67.8585 111.935C66.7557 110.536 66.2043 108.599 66.2043 106.123C66.2043 103.626 66.936 101.463 68.3994 99.6334C69.8628 97.8038 71.7397 96.889 74.0303 96.889C78.7386 96.889 81.0928 99.5796 81.0928 104.961C81.0928 107.479 80.3293 109.621 78.8022 111.386C77.2752 113.129 75.3452 114.001 73.0123 114.001ZM70.7217 100.441C70.34 101.689 70.1491 102.937 70.1491 104.186C70.1491 105.434 70.1915 106.403 70.2763 107.092C70.3612 107.781 70.5202 108.469 70.7535 109.158C71.2413 110.557 72.1957 111.257 73.6167 111.257C75.0589 111.257 76.0027 110.869 76.4481 110.094C76.9147 109.32 77.148 108.125 77.148 106.511C77.148 101.926 76.0769 99.6334 73.9348 99.6334C72.7047 99.6334 71.6337 99.9025 70.7217 100.441Z" fill="#414143"/>
<path fill-rule="evenodd" clip-rule="evenodd" d="M91.9519 104.177C90.877 104.788 90.0009 105.672 89.5454 106.279C89.1248 106.84 88.2576 107 87.6084 106.636C86.9593 106.273 86.774 105.524 87.1945 104.963C87.8128 104.139 88.9465 102.989 90.4113 102.156C91.8803 101.32 93.8697 100.707 96.0257 101.328C97.174 101.658 98.5773 102.307 100.014 103.021C100.72 103.373 101.461 103.753 102.211 104.138L102.292 104.18C103.073 104.581 103.865 104.988 104.658 105.381C106.251 106.173 107.804 106.891 109.203 107.388C110.642 107.899 111.734 108.108 112.465 108.046C113.235 107.982 113.919 108.469 113.994 109.134C114.068 109.799 113.504 110.391 112.734 110.455C111.294 110.575 109.673 110.171 108.138 109.626C106.563 109.066 104.881 108.283 103.262 107.479C102.448 107.075 101.64 106.66 100.861 106.26L100.787 106.222C100.031 105.834 99.3053 105.461 98.6165 105.119C97.1663 104.398 95.9874 103.867 95.1399 103.623C94.1027 103.325 93.0225 103.568 91.9519 104.177Z" fill="#414143"/>
</svg>
