<svg width="26" height="33" viewBox="0 0 26 33" fill="none" xmlns="http://www.w3.org/2000/svg">
<path d="M24.6976 8.41214C24.6713 8.41214 24.6318 8.41214 24.5923 8.41214C17.6256 7.59865 10.6721 7.29166 3.78437 8.10516L1.09778 8.41214C0.544663 8.47354 0.0573898 8.01307 0.00471164 7.36841C-0.0479665 6.72375 0.34712 6.17118 0.887071 6.10979L3.57366 5.80281C10.5799 4.97396 17.6783 5.29629 24.7898 6.10979C25.3298 6.17118 25.7249 6.7391 25.6722 7.36841C25.6327 7.96702 25.1981 8.41214 24.6976 8.41214Z" fill="#292D32"/>
<path d="M8.23674 6.86102C8.18406 6.86102 8.13138 6.86102 8.06554 6.84568C7.53875 6.73823 7.17001 6.13962 7.26219 5.52566L7.55192 3.51493C7.76264 2.04142 8.05237 0 11.1208 0H14.5712C17.6529 0 17.9426 2.11817 18.1402 3.53028L18.4299 5.52566C18.5221 6.15497 18.1533 6.75358 17.6266 6.84568C17.0866 6.95312 16.573 6.52335 16.494 5.90938L16.2043 3.91401C16.0199 2.57864 15.9804 2.31771 14.5844 2.31771H11.134C9.73807 2.31771 9.71173 2.53259 9.51419 3.89866L9.21129 5.89403C9.13227 6.46195 8.71084 6.86102 8.23674 6.86102Z" fill="#292D32"/>
<path d="M17.0748 32.9997H8.61993C4.02376 32.9997 3.83939 30.0373 3.69452 27.6429L2.8385 12.1863C2.799 11.557 3.22042 11.0045 3.76037 10.9584C4.31349 10.9277 4.77443 11.4036 4.81394 12.0329L5.66995 27.4894C5.81482 29.8224 5.8675 30.6973 8.61993 30.6973H17.0748C19.8404 30.6973 19.8931 29.8224 20.0248 27.4894L20.8808 12.0329C20.9203 11.4036 21.3944 10.9277 21.9343 10.9584C22.4743 11.0045 22.8957 11.5417 22.8562 12.1863L22.0002 27.6429C21.8553 30.0373 21.671 32.9997 17.0748 32.9997Z" fill="#292D32"/>
<path d="M15.0314 24.5582H10.6459C10.106 24.5582 9.6582 24.0363 9.6582 23.407C9.6582 22.7777 10.106 22.2559 10.6459 22.2559H15.0314C15.5714 22.2559 16.0191 22.7777 16.0191 23.407C16.0191 24.0363 15.5714 24.5582 15.0314 24.5582Z" fill="#292D32"/>
<path d="M16.1369 18.4195H9.55217C9.01222 18.4195 8.56445 17.8977 8.56445 17.2684C8.56445 16.6391 9.01222 16.1172 9.55217 16.1172H16.1369C16.6769 16.1172 17.1247 16.6391 17.1247 17.2684C17.1247 17.8977 16.6769 18.4195 16.1369 18.4195Z" fill="#292D32"/>
</svg>
