<svg width="682" height="557" viewBox="0 0 682 557" fill="none" xmlns="http://www.w3.org/2000/svg">
<path fill-rule="evenodd" clip-rule="evenodd" d="M351.337 113.654C351.337 115.416 350.895 117.075 350.118 118.527L346.176 134.293C346.176 134.303 346.176 134.312 346.176 134.321C346.176 137.174 343.863 139.488 341.009 139.488C338.156 139.488 335.843 137.174 335.843 134.321C335.843 134.32 335.843 134.319 335.843 134.318H335.837L331.889 118.527C331.111 117.075 330.67 115.416 330.67 113.654V113.651C330.671 107.945 335.297 103.32 341.003 103.32C346.709 103.32 351.335 107.945 351.337 113.651V113.654Z" fill="#414143"/>
<path fill-rule="evenodd" clip-rule="evenodd" d="M550.915 99.4856C550.915 99.4849 550.915 99.4842 550.915 99.4836C550.747 93.7791 543.779 89.3562 535.352 89.6047C526.925 89.8532 520.23 94.6791 520.398 100.384C520.432 101.536 520.744 102.636 521.288 103.655L533.721 149.767C537.964 159.597 553.981 166.591 577.676 165.892C580.309 165.815 589.524 165.543 589.451 163.056C589.399 161.294 586.248 161.227 582.421 161.145C580.849 161.112 579.162 161.076 577.53 160.919C557.71 159.015 553.629 154.655 553.394 146.698L550.924 99.4853L550.915 99.4856Z" fill="#414143"/>
<path fill-rule="evenodd" clip-rule="evenodd" d="M140.134 99.3478C140.134 99.3436 140.134 99.3394 140.134 99.3352C140.27 93.6299 147.213 89.1677 155.641 89.3686C164.07 89.5695 170.792 94.3575 170.656 100.063C170.656 100.063 170.656 100.063 170.656 100.063L170.656 100.063L170.656 100.064C170.628 101.204 170.329 102.294 169.801 103.308L157.621 149.52C153.434 159.373 137.457 166.457 113.757 165.892C111.124 165.83 101.908 165.61 101.967 163.123C102.009 161.36 105.16 161.275 108.986 161.172C110.558 161.13 112.244 161.085 113.876 160.919C133.685 158.902 137.741 154.52 137.931 146.562L140.134 99.3478Z" fill="#414143"/>
<path fill-rule="evenodd" clip-rule="evenodd" d="M531.3 279.306C530.973 278.173 530.786 277.004 530.75 275.807C530.414 264.398 544.014 254.74 561.128 254.235C575.611 253.808 587.969 260.074 591.629 268.926L592.584 268.818L607.63 516.109C608.122 532.784 616.145 541.935 655.032 546.004C658.235 546.339 661.543 546.421 664.627 546.497C672.135 546.683 678.316 546.836 678.425 550.53C678.579 555.74 660.503 556.274 655.339 556.426C608.859 557.797 577.412 543.078 569.05 522.462L531.3 279.306Z" fill="#414143"/>
<path fill-rule="evenodd" clip-rule="evenodd" d="M150.48 278.753C150.79 277.638 150.965 276.488 150.993 275.311C151.265 263.901 137.61 254.32 120.494 253.912C106.014 253.567 93.6958 259.897 90.0803 268.764L89.1304 268.662L75.4813 516.034C75.0838 532.712 67.1123 541.908 28.2491 546.196C25.0481 546.55 21.7405 546.65 18.6567 546.744C11.15 546.972 4.96956 547.16 4.8815 550.854C4.75726 556.066 22.8355 556.497 28.0007 556.62C74.4874 557.728 105.851 542.832 114.096 522.169L150.48 278.753Z" fill="#414143"/>
<path fill-rule="evenodd" clip-rule="evenodd" d="M8.94989 297.374C1.16747 286.218 -8.69025 257.21 14.1382 230.434C25.3796 219.277 58.7577 194.286 102.339 183.576C156.816 170.188 211.293 160.147 341 160.146V207.004C294.305 207.004 188.122 207.858 136.063 213.698C76.3979 220.392 11.5436 247.169 14.1382 294.027C14.138 297.374 12.9167 299.646 8.94989 297.374ZM673.05 297.374C680.833 286.218 690.69 257.21 667.862 230.434C656.62 219.277 623.242 194.286 579.661 183.576C525.184 170.188 473.301 160.147 341 160.146V207.004C346.261 207.004 352.279 206.987 358.891 206.969C410.968 206.822 499.899 206.57 545.937 213.698C610.79 223.739 670.456 247.169 667.862 294.027C666.5 297.063 669.083 299.646 673.05 297.374Z" fill="#414143"/>
<path fill-rule="evenodd" clip-rule="evenodd" d="M59.1184 0.570801C52.6331 7.5223 44.4183 25.5962 63.442 42.2798C72.8098 49.2313 100.625 64.8026 136.943 71.4761C182.34 79.8179 227.738 86.0739 335.827 86.0742V56.8782C296.915 56.8782 208.428 56.3465 165.046 52.7073C115.325 48.5364 61.2798 31.8528 63.442 2.65655C63.4418 0.5709 62.424 -0.844833 59.1184 0.570801ZM612.543 0.570793C619.028 7.52229 627.243 25.5962 608.219 42.2798C598.851 49.2313 571.036 64.8026 534.718 71.4761C489.321 79.8179 446.085 86.0739 335.834 86.0742V56.8782C340.218 56.8782 345.233 56.8888 350.743 56.9004C394.141 56.9921 468.25 57.1485 506.615 52.7073C560.66 46.451 610.381 31.8528 608.219 2.65654C607.084 0.764771 609.237 -0.844841 612.543 0.570793Z" fill="#414143"/>
</svg>
