<svg width="821" height="168" viewBox="0 0 821 168" fill="none" xmlns="http://www.w3.org/2000/svg">
<path d="M68.9392 75.1506C76.9322 91.441 86.6928 106.579 98.2211 120.564C109.903 134.549 120.817 143.078 130.961 146.152C130.961 152.606 129.271 157.601 125.889 161.136C122.507 164.671 117.666 166.438 111.363 166.438C103.063 166.438 93.4561 160.675 82.5426 149.149C71.7829 137.469 62.3297 124.406 54.183 109.96C46.0363 95.5135 40.3491 82.8347 37.1211 71.9233C52.3385 65.315 65.327 55.0951 76.0868 41.2637C86.8465 27.2786 92.2264 13.524 92.2264 0C98.836 0 104.523 1.15262 109.288 3.45785C114.207 5.76308 116.666 9.45145 116.666 14.523C116.666 22.5145 111.901 32.1964 102.371 43.5689C92.8412 54.9414 81.6972 65.4687 68.9392 75.1506ZM36.4294 162.288C31.5107 164.133 26.2845 165.055 20.7509 165.055C15.2174 165.055 10.3755 163.287 6.22528 159.753C2.2288 156.218 0.230566 151.377 0.230566 145.23C0.230566 139.082 0.99912 127.326 2.53623 109.96C4.07333 92.4399 4.84189 78.4548 4.84189 68.0044C4.84189 41.11 3.22792 19.825 0 4.14942C4.91874 2.30523 10.1449 1.38314 15.6785 1.38314C21.2121 1.38314 25.9771 3.15048 29.9736 6.68517C34.1238 10.2199 36.1989 15.0609 36.1989 21.2082C36.1989 27.3554 35.4303 39.189 33.8932 56.7088C32.3561 74.0748 31.5875 87.9831 31.5875 98.4335C31.5875 125.328 33.2015 146.613 36.4294 162.288Z" fill="#414143"/>
<path d="M248.469 56.4782C244.319 74.1517 242.244 91.902 242.244 109.729C242.244 127.403 244.242 144.922 248.239 162.288C242.705 164.133 237.018 165.055 231.177 165.055C225.336 165.055 221.262 163.364 218.957 159.983C216.651 156.449 215.498 151.454 215.498 144.999C215.498 138.391 216.497 129.4 218.496 118.028C207.582 141.388 197.053 156.141 186.908 162.288C182.297 165.055 177.532 166.438 172.613 166.438C160.931 166.438 151.862 162.135 145.406 153.529C138.95 144.769 135.722 133.934 135.722 121.025C135.722 101.353 141.179 84.141 152.093 69.3875C163.006 54.4804 177.147 47.0268 194.517 47.0268C212.04 47.0268 230.024 50.1773 248.469 56.4782ZM218.265 70.3096C210.118 67.8507 203.201 66.6213 197.514 66.6213C185.986 66.6213 177.378 69.157 171.691 74.2285C166.464 87.1378 163.851 100.278 163.851 113.648C163.851 120.717 164.927 127.864 167.079 135.087C169.385 142.31 172.843 145.921 177.455 145.921C182.835 145.921 189.752 138.007 198.206 122.177C206.66 106.348 213.346 89.0589 218.265 70.3096Z" fill="#414143"/>
<path d="M373.648 71.9233L371.343 122.638C371.343 136.624 373.495 150.301 377.799 163.672C373.495 165.516 368.576 166.438 363.042 166.438C349.977 166.438 343.444 159.138 343.444 144.538C343.444 137.93 344.29 126.865 345.98 111.343C347.671 95.6672 348.517 85.8315 348.517 81.8358C348.517 74.1517 345.058 70.3096 338.141 70.3096C333.069 70.3096 327.305 73.998 320.849 81.3748C314.547 88.5978 309.09 96.743 304.479 105.81C300.021 114.724 297.408 122.101 296.639 127.94C297.254 139.928 298.791 151.377 301.251 162.288C296.332 164.133 291.183 165.055 285.803 165.055C280.577 165.055 276.273 163.825 272.891 161.366C269.663 158.754 268.049 155.219 268.049 150.762C268.049 146.152 268.741 138.007 270.124 126.327C271.508 114.493 272.199 102.813 272.199 91.2873C272.199 79.6074 270.432 66.2371 266.896 51.1762C271.815 49.332 277.041 48.4099 282.575 48.4099C288.108 48.4099 292.566 50.0236 295.948 53.2509C299.483 56.4782 301.251 60.474 301.251 65.2381C301.251 70.0023 300.636 77.6096 299.406 88.0599C305.247 77.1485 312.856 67.6202 322.232 59.475C331.609 51.1762 340.985 47.0268 350.361 47.0268C365.886 47.0268 373.648 55.3256 373.648 71.9233Z" fill="#414143"/>
<path d="M407.758 14.523C412.676 12.0641 417.672 10.8346 422.745 10.8346C427.817 10.8346 431.89 12.4483 434.965 15.6756C438.192 18.9029 439.806 23.6671 439.806 29.968C439.806 36.269 439.422 43.4152 438.654 51.4067C450.182 51.4067 461.172 49.7931 471.625 46.5657C473.469 49.6394 474.391 53.2509 474.391 57.4003C474.391 61.3961 472.547 64.7002 468.858 67.3128C465.322 69.7717 461.71 71.0012 458.021 71.0012C454.332 71.0012 450.182 70.5402 445.571 69.6181C440.959 68.696 437.962 68.1581 436.578 68.0044C436.425 69.3875 435.964 72.1538 435.195 76.3032C434.58 80.4527 434.042 84.0642 433.581 87.1378C432.351 95.5904 431.737 104.658 431.737 114.34C431.737 135.394 438.577 145.921 452.257 145.921C457.329 145.921 463.17 144.154 469.78 140.619C471.778 143.539 472.777 147.304 472.777 151.915C472.777 156.525 470.241 160.137 465.169 162.75C460.25 165.208 454.332 166.438 447.415 166.438C420.362 166.438 406.835 151.07 406.835 120.333C406.835 115.876 407.45 107.808 408.68 96.1283C410.063 84.4484 410.755 74.9969 410.755 67.7739C403.377 68.2349 397.459 69.5412 393.002 71.6928C391.157 68.9265 390.235 65.776 390.235 62.2413C390.235 58.5529 391.541 55.5561 394.154 53.2509C396.767 50.792 399.995 49.5625 403.838 49.5625C407.681 49.5625 410.217 49.6394 411.447 49.7931C411.601 48.5636 411.677 46.9499 411.677 44.9521C411.677 33.4259 410.371 23.2829 407.758 14.523Z" fill="#414143"/>
<path d="M529.158 167.821C512.25 167.821 499.799 162.903 491.806 153.068C483.813 143.078 479.817 129.247 479.817 111.573C479.817 93.7462 485.12 78.3011 495.726 65.2381C506.332 52.1751 519.935 45.6436 536.536 45.6436C570.66 45.6436 587.722 64.8539 587.722 103.274C587.722 121.255 582.188 136.547 571.121 149.149C560.054 161.597 546.066 167.821 529.158 167.821ZM512.557 71.0012C509.79 79.9148 508.407 88.8283 508.407 97.7419C508.407 106.655 508.714 113.571 509.329 118.489C509.944 123.407 511.097 128.325 512.788 133.243C516.323 143.232 523.24 148.227 533.539 148.227C543.991 148.227 550.831 145.46 554.059 139.928C557.441 134.395 559.132 125.866 559.132 114.34C559.132 81.6053 551.369 65.2381 535.844 65.2381C526.929 65.2381 519.167 67.1592 512.557 71.0012Z" fill="#414143"/>
<path fill-rule="evenodd" clip-rule="evenodd" d="M665.37 97.2329C657.783 102.26 651.598 109.52 648.383 114.513C645.414 119.123 639.293 120.439 634.711 117.452C630.129 114.465 628.821 108.307 631.79 103.696C636.154 96.9195 644.156 87.4698 654.495 80.6192C664.865 73.7486 678.907 68.7044 694.125 73.8082C702.231 76.5265 712.136 81.8628 722.274 87.7323C727.261 90.6197 732.491 93.7484 737.784 96.9149L738.357 97.258C743.87 100.556 749.46 103.896 755.057 107.134C766.302 113.639 777.262 119.543 787.139 123.63C797.296 127.834 805.002 129.546 810.161 129.044C815.595 128.515 820.427 132.518 820.953 137.986C821.479 143.454 817.5 148.315 812.065 148.844C801.901 149.834 790.453 146.511 779.618 142.027C768.502 137.427 756.632 130.991 745.202 124.379C739.461 121.059 733.752 117.646 728.252 114.356L727.73 114.044C722.395 110.852 717.274 107.789 712.413 104.974C702.176 99.0478 693.855 94.6863 687.873 92.6801C680.551 90.2247 672.927 92.2259 665.37 97.2329Z" fill="#414143"/>
</svg>
