<svg width="313" height="56" viewBox="0 0 313 56" fill="none" xmlns="http://www.w3.org/2000/svg">
<path d="M41.086 39C41.086 43.4183 37.7211 47 33.5703 47C29.4196 47 26.0547 43.4183 26.0547 39C26.0547 34.5817 29.4196 31 33.5703 31C37.7211 31 41.086 34.5817 41.086 39Z" fill="#C73E3A"/>
<path d="M106.106 27.5989C108.3 32.0641 110.98 36.2134 114.144 40.0467C117.351 43.88 120.347 46.2179 123.132 47.0604C123.132 48.8297 122.668 50.1987 121.74 51.1676C120.811 52.1365 119.482 52.6209 117.752 52.6209C115.474 52.6209 112.836 51.0412 109.841 47.8819C106.887 44.6804 104.292 41.0998 102.055 37.1401C99.8191 33.1804 98.2579 29.7051 97.3718 26.7143C101.549 24.9029 105.115 22.1016 108.068 18.3104C111.022 14.4771 112.499 10.707 112.499 7C114.313 7 115.874 7.31593 117.182 7.9478C118.533 8.57967 119.208 9.59066 119.208 10.9808C119.208 13.1712 117.9 15.8251 115.284 18.9423C112.668 22.0595 109.608 24.9451 106.106 27.5989ZM97.1819 51.4835C95.8317 51.989 94.397 52.2418 92.878 52.2418C91.359 52.2418 90.0298 51.7573 88.8905 50.7885C87.7935 49.8196 87.2449 48.4927 87.2449 46.8077C87.2449 45.1227 87.4559 41.9002 87.8779 37.1401C88.2998 32.3379 88.5108 28.5046 88.5108 25.6401C88.5108 18.2683 88.0677 12.4341 87.1816 8.13736C88.5319 7.63187 89.9665 7.37912 91.4856 7.37912C93.0046 7.37912 94.3126 7.86355 95.4097 8.83242C96.549 9.80128 97.1186 11.1282 97.1186 12.8132C97.1186 14.4982 96.9077 17.7418 96.4857 22.544C96.0637 27.304 95.8528 31.1163 95.8528 33.9808C95.8528 41.3526 96.2958 47.1868 97.1819 51.4835Z" fill="#414143"/>
<path d="M155.389 22.4808C154.25 27.3251 153.68 32.1905 153.68 37.0769C153.68 41.9212 154.229 46.7234 155.326 51.4835C153.807 51.989 152.246 52.2418 150.642 52.2418C149.039 52.2418 147.921 51.7784 147.288 50.8517C146.655 49.8828 146.338 48.5137 146.338 46.7445C146.338 44.9332 146.613 42.4689 147.161 39.3517C144.165 45.7546 141.275 49.7985 138.49 51.4835C137.224 52.2418 135.916 52.6209 134.566 52.6209C131.359 52.6209 128.869 51.4414 127.097 49.0824C125.325 46.6813 124.439 43.7115 124.439 40.1731C124.439 34.7811 125.937 30.0632 128.933 26.0192C131.929 21.9331 135.811 19.8901 140.579 19.8901C145.389 19.8901 150.326 20.7537 155.389 22.4808ZM147.098 26.272C144.861 25.598 142.963 25.261 141.401 25.261C138.237 25.261 135.874 25.956 134.313 27.3462C132.878 30.8846 132.161 34.4863 132.161 38.1511C132.161 40.0888 132.456 42.0476 133.047 44.0275C133.68 46.0073 134.629 46.9973 135.895 46.9973C137.372 46.9973 139.271 44.8278 141.591 40.489C143.912 36.1502 145.748 31.4112 147.098 26.272Z" fill="#414143"/>
<path d="M189.752 26.7143L189.119 40.6154C189.119 44.4487 189.71 48.1978 190.892 51.8626C189.71 52.3681 188.36 52.6209 186.841 52.6209C183.254 52.6209 181.461 50.62 181.461 46.6181C181.461 44.8068 181.693 41.7738 182.157 37.5192C182.621 33.2225 182.853 30.5266 182.853 29.4313C182.853 27.3251 181.904 26.272 180.005 26.272C178.613 26.272 177.03 27.283 175.258 29.3049C173.528 31.2848 172.03 33.5174 170.764 36.0028C169.541 38.446 168.823 40.468 168.612 42.0687C168.781 45.3544 169.203 48.4927 169.878 51.4835C168.528 51.989 167.114 52.2418 165.638 52.2418C164.203 52.2418 163.022 51.9048 162.093 51.2308C161.207 50.5147 160.764 49.5458 160.764 48.3242C160.764 47.0604 160.954 44.8278 161.334 41.6264C161.713 38.3828 161.903 35.1813 161.903 32.022C161.903 28.8205 161.418 25.1557 160.448 21.0275C161.798 20.522 163.233 20.2692 164.752 20.2692C166.271 20.2692 167.494 20.7115 168.423 21.5962C169.393 22.4808 169.878 23.576 169.878 24.8819C169.878 26.1877 169.71 28.2729 169.372 31.1374C170.975 28.1465 173.064 25.5348 175.638 23.3022C178.212 21.0275 180.786 19.8901 183.36 19.8901C187.621 19.8901 189.752 22.1648 189.752 26.7143Z" fill="#414143"/>
<path d="M199.116 10.9808C200.466 10.3068 201.837 9.96978 203.23 9.96978C204.622 9.96978 205.74 10.4121 206.584 11.2967C207.47 12.1813 207.913 13.4872 207.913 15.2143C207.913 16.9414 207.808 18.9002 207.597 21.0907C210.762 21.0907 213.779 20.6484 216.648 19.7637C217.154 20.6062 217.407 21.5962 217.407 22.7335C217.407 23.8288 216.901 24.7344 215.888 25.4506C214.918 26.1245 213.926 26.4615 212.914 26.4615C211.901 26.4615 210.762 26.3352 209.496 26.0824C208.23 25.8297 207.407 25.6822 207.027 25.6401C206.985 26.0192 206.858 26.7775 206.648 27.9148C206.479 29.0522 206.331 30.0421 206.204 30.8846C205.867 33.2015 205.698 35.6868 205.698 38.3407C205.698 44.1117 207.576 46.9973 211.331 46.9973C212.724 46.9973 214.327 46.5128 216.141 45.544C216.69 46.3443 216.964 47.3764 216.964 48.6401C216.964 49.9038 216.268 50.8938 214.876 51.6099C213.525 52.2839 211.901 52.6209 210.002 52.6209C202.576 52.6209 198.862 48.4084 198.862 39.9835C198.862 38.7619 199.031 36.5504 199.369 33.3489C199.749 30.1474 199.938 27.5568 199.938 25.5769C197.913 25.7033 196.289 26.0614 195.065 26.6511C194.559 25.8929 194.305 25.0293 194.305 24.0604C194.305 23.0495 194.664 22.228 195.381 21.5962C196.099 20.9222 196.985 20.5852 198.04 20.5852C199.095 20.5852 199.791 20.6062 200.128 20.6484C200.171 20.3114 200.192 19.869 200.192 19.3214C200.192 16.1621 199.833 13.3819 199.116 10.9808Z" fill="#414143"/>
<path d="M232.441 53C227.8 53 224.382 51.652 222.188 48.956C219.994 46.2179 218.897 42.4267 218.897 37.5824C218.897 32.696 220.352 28.4625 223.264 24.8819C226.175 21.3013 229.91 19.511 234.467 19.511C243.834 19.511 248.518 24.7766 248.518 35.3077C248.518 40.2363 246.999 44.4277 243.961 47.8819C240.923 51.294 237.083 53 232.441 53ZM227.884 26.4615C227.125 28.9048 226.745 31.348 226.745 33.7912C226.745 36.2344 226.829 38.13 226.998 39.478C227.167 40.826 227.483 42.174 227.948 43.522C228.918 46.2601 230.817 47.6291 233.644 47.6291C236.513 47.6291 238.391 46.8709 239.277 45.3544C240.205 43.8379 240.669 41.5 240.669 38.3407C240.669 29.3681 238.539 24.8819 234.277 24.8819C231.83 24.8819 229.699 25.4084 227.884 26.4615Z" fill="#414143"/>
<path fill-rule="evenodd" clip-rule="evenodd" d="M35.2576 11.3825C35.2576 11.5588 35.2134 11.7248 35.1355 11.87L34.7391 13.4525H34.7381C34.7381 13.4526 34.7381 13.4528 34.7381 13.453C34.7381 13.7387 34.5062 13.9704 34.2202 13.9704C33.9341 13.9704 33.7022 13.7387 33.7022 13.453C33.7022 13.4528 33.7022 13.4526 33.7022 13.4525H33.7021L33.3056 11.8699C33.2278 11.7248 33.1837 11.559 33.1836 11.3829L33.1836 11.3828H33.1836V11.3825C33.1836 10.811 33.6479 10.3477 34.2206 10.3477C34.7933 10.3477 35.2576 10.811 35.2576 11.3825Z" fill="#414143"/>
<path fill-rule="evenodd" clip-rule="evenodd" d="M55.2864 9.96262C55.2864 9.96235 55.2864 9.96209 55.2864 9.96183C55.2695 9.39056 54.5703 8.94763 53.7246 8.97251C52.8789 8.9974 52.207 9.48068 52.2239 10.052C52.2273 10.1664 52.2581 10.2757 52.3119 10.3771L53.5604 14.9981C53.9862 15.9825 55.5936 16.6829 57.9715 16.6129C58.2357 16.6051 59.1605 16.5779 59.1531 16.3289C59.1479 16.1524 58.8317 16.1457 58.4476 16.1375C58.2898 16.1342 58.1206 16.1306 57.9568 16.1149C55.9678 15.9242 55.5582 15.4876 55.5347 14.6907L55.2868 9.96261L55.2864 9.96262Z" fill="#414143"/>
<path fill-rule="evenodd" clip-rule="evenodd" d="M14.0632 9.94863C14.0632 9.94842 14.0632 9.94821 14.0632 9.948C14.0769 9.37664 14.7736 8.92978 15.6194 8.9499C16.4652 8.97002 17.1398 9.4495 17.1262 10.0209C17.1234 10.1355 17.0932 10.2451 17.0398 10.3469L15.8176 14.9743C15.3974 15.9611 13.7941 16.6705 11.4158 16.6139C11.1515 16.6077 10.2266 16.5857 10.2326 16.3366C10.2368 16.1601 10.5529 16.1516 10.937 16.1413C11.0947 16.137 11.2639 16.1325 11.4277 16.1158C13.4155 15.9139 13.8226 15.4751 13.8417 14.6781L14.0628 9.94862L14.0632 9.94863Z" fill="#414143"/>
<path fill-rule="evenodd" clip-rule="evenodd" d="M53.3199 27.9819C53.2862 27.8669 53.2669 27.7482 53.2633 27.6266C53.2294 26.4841 54.594 25.5171 56.3114 25.4669C57.7644 25.4244 59.0043 26.0516 59.3722 26.9376L59.4689 26.9267L60.983 51.6916C61.0327 53.3615 61.838 54.2781 65.7405 54.6862C66.0619 54.7198 66.3939 54.728 66.7034 54.7357C67.4569 54.7544 68.0772 54.7699 68.0882 55.1398C68.1037 55.6616 66.2898 55.7147 65.7715 55.7299C61.1071 55.8663 57.951 54.3918 57.1115 52.3272L53.3199 27.9819Z" fill="#414143"/>
<path fill-rule="evenodd" clip-rule="evenodd" d="M15.1024 27.919C15.1332 27.8078 15.1506 27.6932 15.1534 27.576C15.1807 26.4333 13.8104 25.4738 12.0927 25.433C10.6398 25.3984 9.40369 26.0322 9.0407 26.9201L8.94551 26.9098L7.57577 51.6828C7.53587 53.353 6.7359 54.2739 2.83582 54.7034C2.51459 54.7388 2.18266 54.7488 1.87319 54.7582C1.11986 54.7811 0.499624 54.7999 0.490787 55.1698C0.478319 55.6918 2.29254 55.7349 2.81089 55.7472C7.47602 55.8582 10.6235 54.3664 11.4509 52.2972L15.1024 27.919Z" fill="#414143"/>
<path fill-rule="evenodd" clip-rule="evenodd" d="M0.898156 29.7797C0.117161 28.6625 -0.872101 25.7575 1.41882 23.076C2.54694 21.9587 5.89657 19.456 10.2701 18.3834C15.7371 17.0427 21.2041 16.0372 34.2207 16.0371V20.7297C29.5347 20.7297 18.8787 20.8151 13.6545 21.4C7.66683 22.0704 1.15845 24.7519 1.41882 29.4445C1.41881 29.7797 1.29624 30.0073 0.898156 29.7797ZM67.5433 29.7797C68.3243 28.6625 69.3135 25.7575 67.0226 23.076C65.8945 21.9587 62.5448 19.456 58.1713 18.3834C52.7043 17.0427 47.4977 16.0372 34.2207 16.0371V20.7297C34.7486 20.7297 35.3526 20.728 36.0161 20.7261C41.2423 20.7114 50.1669 20.6862 54.7869 21.4C61.2952 22.4056 67.283 24.7519 67.0226 29.4445C66.8859 29.7486 67.1452 30.0073 67.5433 29.7797Z" fill="#414143"/>
<path fill-rule="evenodd" clip-rule="evenodd" d="M270.148 33.9302C268.076 35.296 266.387 37.2685 265.509 38.625C264.698 39.8775 263.027 40.235 261.775 39.4235C260.524 38.612 260.167 36.9388 260.977 35.6863C262.169 33.8451 264.355 31.2778 267.178 29.4165C270.01 27.5499 273.845 26.1794 278.001 27.5661C280.215 28.3046 282.92 29.7544 285.689 31.3491C287.051 32.1335 288.479 32.9836 289.925 33.8438L290.081 33.9371C291.587 34.833 293.114 35.7405 294.642 36.6202C297.713 38.3875 300.707 39.9915 303.404 41.102C306.178 42.244 308.282 42.7094 309.691 42.5729C311.176 42.4291 312.495 43.5168 312.639 45.0023C312.782 46.4878 311.696 47.8086 310.212 47.9523C307.436 48.2212 304.309 47.3185 301.35 46.1002C298.314 44.8505 295.072 43.1019 291.951 41.3055C290.383 40.4033 288.824 39.4763 287.322 38.5825L287.179 38.4976C285.722 37.6305 284.324 36.7981 282.996 36.0334C280.2 34.4233 277.928 33.2384 276.294 32.6933C274.294 32.0262 272.212 32.5699 270.148 33.9302Z" fill="#414143"/>
<path fill-rule="evenodd" clip-rule="evenodd" d="M5.93303 0.0564356C5.2822 0.752591 4.45782 2.56259 6.36691 4.23336C7.307 4.92952 10.0983 6.48891 13.743 7.15722C18.2987 7.9926 22.8545 8.61911 33.7016 8.61914V5.69532C29.7967 5.69532 20.9167 5.64207 16.5632 5.27763C11.5735 4.85993 6.14994 3.18916 6.36691 0.265312C6.3669 0.0564451 6.26476 -0.0853329 5.93303 0.0564356ZM61.471 0.0564356C62.1219 0.752591 62.9462 2.56259 61.0371 4.23336C60.0971 4.92952 57.3057 6.48891 53.6611 7.15722C49.1053 7.9926 44.7665 8.61911 33.7024 8.61914V5.69532C34.1424 5.69532 34.6456 5.69638 35.1986 5.69755C39.5537 5.70672 46.9908 5.72239 50.8408 5.27763C56.2644 4.65109 61.2541 3.18916 61.0371 0.265312C60.9233 0.075861 61.1393 -0.0853329 61.471 0.0564356Z" fill="#414143"/>
</svg>
